<svg id="Layer_5" enable-background="new 0 0 64 64" height="512" viewBox="0 0 64 64" width="512" xmlns="http://www.w3.org/2000/svg"><g><path d="m23.854 15h.291c1.575 0 2.855-1.28 2.855-2.854 0-1.088-.604-2.065-1.578-2.553l-1.949-.975c-.292-.145-.473-.438-.473-.764 0-.47.384-.854.854-.854h.291c.471 0 .855.384.855.854v.146h2v-.146c0-1.574-1.28-2.854-2.854-2.854h-.291c-1.575 0-2.855 1.28-2.855 2.854 0 1.088.604 2.065 1.578 2.553l1.949.975c.292.145.473.438.473.764 0 .47-.384.854-.854.854h-.291c-.471 0-.855-.384-.855-.854v-.146h-2v.146c0 1.574 1.28 2.854 2.854 2.854z"/><path d="m31 11h1c1.654 0 3-1.346 3-3s-1.346-3-3-3h-3v10h2zm0-4h1c.552 0 1 .448 1 1s-.448 1-1 1h-1z"/><path d="m37.469 13h3.062l.492 2.217 1.953-.434-2.174-9.783h-3.604l-2.175 9.783 1.953.434zm1.729-6 .888 4h-2.173l.888-4z"/><path d="m61 57.184v-28.948l2.118-4.236-6.5-13h-9.618v-7c0-1.654-1.346-3-3-3h-24c-1.654 0-3 1.346-3 3v7h-9.618l-6.5 13 2.118 4.236v28.948c-1.161.414-2 1.514-2 2.816v3h62v-3c0-1.302-.839-2.402-2-2.816zm-33.54-22.184c-.916 1.755-2.983 4.787-6.777 6.052l-.683.227v.721c0 .065-.046 5.651-3 9.531v-16.531zm19.54 16.528c-2.942-3.874-3-9.464-3-9.529l-.002-.721-.682-.227c-3.773-1.258-5.848-4.294-6.771-6.052h10.455zm-12.679-16.528c.714 1.651 2.931 5.825 7.705 7.709.122 2.072.846 8.117 4.975 11.742v1.745l-2.598-1.624c-6.856-4.285-11.048-11.548-11.371-19.572zm-17.321 19.451c4.129-3.625 4.852-9.67 4.975-11.742 4.774-1.884 6.991-6.058 7.705-7.709h1.289c-.324 8.024-4.515 15.287-11.371 19.572l-2.598 1.624zm3.658 1.817c5.631-3.52 9.598-8.899 11.342-15.083 1.744 6.184 5.711 11.563 11.342 15.083l1.172.732h-25.028zm28.342-21.268h2v-2h-38v2h2v22h-6v-28h3.618l1.382-2.763 1.382 2.763h9.236l1.382-2.764 1.382 2.764h9.236l1.382-2.764 1.382 2.764h9.236l1.382-2.763 1.382 2.763h3.618v28h-6zm-31.705-17.724c.482 1.015 1.509 1.724 2.705 1.724h5.82l-.667 4h-9.765zm29.41 0 1.907 5.724h-9.765l-.667-4h5.82c1.196 0 2.223-.709 2.705-1.724zm5.913 9.724-1-2h8.764l-1 2zm-4.236-2-1 2h-6.764l-1-2zm-12.229-6 .666 4h-9.639l.666-4zm.229 6-1 2h-6.764l-1-2zm-12 0-1 2h-6.764l-1-2zm-19.764 2-1-2h8.764l-1 2zm2.382 2v28h-2v-28zm50 0h2v28h-2zm3.382-6h-9.661l-3.334-10h7.995zm-41.382-19c0-.552.448-1 1-1h24c.552 0 1 .448 1 1v12c0 .552-.448 1-1 1h-24c-.552 0-1-.448-1-1zm-10.382 9h7.995l-3.334 10h-9.661zm52.382 48h-58v-1c0-.552.448-1 1-1h56c.552 0 1 .448 1 1z"/></g></svg>